<?xml version="1.0" encoding="UTF-8" standalone="no"?>
<svg
	xmlns:dc="http://purl.org/dc/elements/1.1/"
	xmlns:cc="http://creativecommons.org/ns#"
	xmlns:rdf="http://www.w3.org/1999/02/22-rdf-syntax-ns#"
	xmlns="http://www.w3.org/2000/svg"
	xmlns:sodipodi="http://sodipodi.sourceforge.net/DTD/sodipodi-0.dtd"
	xmlns:inkscape="http://www.inkscape.org/namespaces/inkscape"
	version="1.1"
	x="0px"
	y="0px"
	viewBox="0 0 100 100"
	enable-background="new 0 0 100 100"
	xml:space="preserve"
	id="svg2"><metadata
     id="metadata16"><rdf:RDF><cc:Work
         rdf:about=""><dc:format>image/svg+xml</dc:format><dc:type
           rdf:resource="http://purl.org/dc/dcmitype/StillImage" /></cc:Work></rdf:RDF></metadata><defs
     id="defs14" /><sodipodi:namedview
     pagecolor="#ffffff"
     bordercolor="#666666"
     borderopacity="1"
     objecttolerance="10"
     gridtolerance="10"
     guidetolerance="10"
     inkscape:pageopacity="0"
     inkscape:pageshadow="2"
     inkscape:window-width="1920"
     inkscape:window-height="1021"
     id="namedview12"
     showgrid="false"
     inkscape:zoom="5.3400704"
     inkscape:cx="65.755938"
     inkscape:cy="30.319195"
     inkscape:window-x="0"
     inkscape:window-y="27"
     inkscape:window-maximized="1"
     inkscape:current-layer="svg2" /><path
     d="M85.45,80.93l-1.36-22.42c-0.4-6.55-5.17-11.83-11.25-12.88c0.03-9.38-0.89-27.36-7.99-34.19  C53.34,0.38,43.3,6.86,41.28,8.38l0.02-0.02c0,0-4.75-0.51-7.93,4.85c-4.31,7.27-5.79,22.88-6.31,32.44  c-6.04,1.09-10.76,6.34-11.16,12.86l-1.36,22.42c-0.23,3.72,1.09,7.39,3.6,10.06c2.43,2.58,5.68,4,9.17,4h45.37  c3.48,0,6.74-1.42,9.17-4C84.37,88.32,85.68,84.65,85.45,80.93z M35.4,30.53c0.07-1.63,0.27-3.08,0.55-4.4  c1.23-0.84,2.38-1.74,3.49-2.67c2.61-2.45,3.48-6.6,3.48-6.6s2.88,4.54,9.52,7.96c3.31,1.7,8.09,2.85,12.07,3.88  c0.13,0.71,0.22,1.42,0.27,2.15c0.14,1.86-0.17,4.52-0.69,7.45c-3.23,4.2-8.28,6.93-13.98,6.93c-5.93,0-11.18-2.96-14.38-7.46  C35.44,35.29,35.3,32.82,35.4,30.53z M36.26,41.5c1.64,1.63,3.57,2.96,5.69,3.93h-3.6h-1.34C36.75,44.17,36.49,42.85,36.26,41.5z   M58.01,47.43l-7.9,11.25l-7.9-11.25H58.01z M63.34,42.06c-0.25,1.13-0.51,2.27-0.78,3.38h-0.7h-3.6  C60.13,44.58,61.84,43.43,63.34,42.06z M80.4,89.63C78.35,91.8,75.61,93,72.68,93H27.32c-2.93,0-5.67-1.2-7.71-3.37  c-2.14-2.27-3.26-5.4-3.06-8.57l1.36-22.42c0.33-5.42,4.13-9.82,9.06-10.93c-0.16,3.6-0.17,5.93-0.17,5.93l13.23,3.08  c0,0-1.33-3.96-2.57-9.29h2.3l10.35,14.73l10.35-14.73h1.61c-1.31,5.13-2.6,9.29-2.6,9.29l13.21-5.21c0,0,0.09-1.47,0.14-3.86  c5.03,1.02,8.94,5.48,9.27,10.98l1.36,22.42C83.65,84.23,82.53,87.35,80.4,89.63z"
     id="path4" /><polygon
     points="74.22,65.39 69.82,65.39 69.82,60.99 65.76,60.99 65.76,65.39 61.36,65.39 61.36,69.44 65.76,69.44 65.76,73.85   69.82,73.85 69.82,69.44 74.22,69.44 "
     id="polygon6" /></svg>
