<?xml version="1.0" encoding="UTF-8" standalone="no"?>
<svg
	xmlns:dc="http://purl.org/dc/elements/1.1/"
	xmlns:cc="http://creativecommons.org/ns#"
	xmlns:rdf="http://www.w3.org/1999/02/22-rdf-syntax-ns#"
	xmlns="http://www.w3.org/2000/svg"
	xmlns:sodipodi="http://sodipodi.sourceforge.net/DTD/sodipodi-0.dtd"
	xmlns:inkscape="http://www.inkscape.org/namespaces/inkscape"
	version="1.1"
	x="0px"
	y="0px"
	viewBox="0 0 100 100"
	enable-background="new 0 0 100 100"
	xml:space="preserve"
	id="svg2"
	inkscape:version="0.91 r13725"
	sodipodi:docname="Icon_Caregiver_Man.svg"><metadata
     id="metadata16"><rdf:RDF><cc:Work
         rdf:about=""><dc:format>image/svg+xml</dc:format><dc:type
           rdf:resource="http://purl.org/dc/dcmitype/StillImage" /></cc:Work></rdf:RDF></metadata><defs
     id="defs14" /><sodipodi:namedview
     pagecolor="#ffffff"
     bordercolor="#666666"
     borderopacity="1"
     objecttolerance="10"
     gridtolerance="10"
     guidetolerance="10"
     inkscape:pageopacity="0"
     inkscape:pageshadow="2"
     inkscape:window-width="1920"
     inkscape:window-height="1021"
     id="namedview12"
     showgrid="false"
     inkscape:zoom="3.776"
     inkscape:cx="38.311783"
     inkscape:cy="35.291081"
     inkscape:window-x="0"
     inkscape:window-y="27"
     inkscape:window-maximized="1"
     inkscape:current-layer="svg2" /><path
     d="M85.45,80.93l-1.36-22.42c-0.45-7.33-6.36-13.08-13.46-13.08h-8.77h-3.6c6.76-3.1,11.48-9.92,11.48-17.84  c0-0.93-0.09-1.84-0.21-2.74c-0.02-0.3-0.04-0.56-0.07-0.74c-0.08-0.52-0.22-1.09-0.43-1.68C66.76,14.1,59.15,7.96,50.11,7.96  c-10.83,0-19.64,8.81-19.64,19.63c0,7.92,4.72,14.74,11.48,17.84h-3.6h-8.98c-7.1,0-13.02,5.74-13.46,13.08l-1.36,22.42  c-0.23,3.72,1.09,7.39,3.6,10.06c2.43,2.58,5.68,4,9.17,4h45.37c3.48,0,6.74-1.42,9.17-4C84.37,88.32,85.68,84.65,85.45,80.93z   M32.51,28.24c2.16-1.18,4.35-3.42,5.68-5.76c1.57-2.77,2.01-5.3,2.01-5.3s10.46-0.51,17.1,2.91c3.62,1.86,8.01,4.48,10.44,7.67  c-0.09,9.65-7.96,17.47-17.63,17.47C40.6,45.23,32.85,37.67,32.51,28.24z M58.01,47.43l-7.9,11.25l-7.9-11.25H58.01z M80.4,89.63  C78.35,91.8,75.61,93,72.68,93H27.32c-2.93,0-5.67-1.2-7.71-3.37c-2.14-2.27-3.26-5.4-3.06-8.57l1.36-22.42  c0.38-6.28,5.42-11.2,11.47-11.2h10.39l10.35,14.73l10.35-14.73h10.17c6.05,0,11.08,4.92,11.47,11.2l1.36,22.42  C83.65,84.23,82.53,87.35,80.4,89.63z"
     id="path4" /><polygon
     points="74.22,65.39 69.82,65.39 69.82,60.99 65.76,60.99 65.76,65.39 61.36,65.39 61.36,69.44 65.76,69.44 65.76,73.85   69.82,73.85 69.82,69.44 74.22,69.44 "
     id="polygon6" /></svg>
