<?xml version="1.0" encoding="UTF-8" standalone="no"?>
<!-- Generator: Adobe Illustrator 23.0.1, SVG Export Plug-In . SVG Version: 6.00 Build 0)  -->

<svg
   xmlns:dc="http://purl.org/dc/elements/1.1/"
   xmlns:cc="http://creativecommons.org/ns#"
   xmlns:rdf="http://www.w3.org/1999/02/22-rdf-syntax-ns#"
   xmlns:svg="http://www.w3.org/2000/svg"
   xmlns="http://www.w3.org/2000/svg"
   xmlns:sodipodi="http://sodipodi.sourceforge.net/DTD/sodipodi-0.dtd"
   xmlns:inkscape="http://www.inkscape.org/namespaces/inkscape"
   version="1.1"
   x="0px"
   y="0px"
   width="24px"
   height="24px"
   viewBox="0 0 24 24"
   enable-background="new 0 0 24 24"
   xml:space="preserve"
   id="svg2"
   inkscape:version="0.91 r13725"
   sodipodi:docname="Cup.svg"><metadata
     id="metadata15"><rdf:RDF><cc:Work
         rdf:about=""><dc:format>image/svg+xml</dc:format><dc:type
           rdf:resource="http://purl.org/dc/dcmitype/StillImage" /></cc:Work></rdf:RDF></metadata><defs
     id="defs13" /><sodipodi:namedview
     pagecolor="#ffffff"
     bordercolor="#666666"
     borderopacity="1"
     objecttolerance="10"
     gridtolerance="10"
     guidetolerance="10"
     inkscape:pageopacity="0"
     inkscape:pageshadow="2"
     inkscape:window-width="640"
     inkscape:window-height="480"
     id="namedview11"
     showgrid="false"
     inkscape:zoom="9.8333333"
     inkscape:cx="12"
     inkscape:cy="12"
     inkscape:window-x="0"
     inkscape:window-y="27"
     inkscape:window-maximized="0"
     inkscape:current-layer="svg2" /><g
     id="Bounding_Box"><rect
       fill="none"
       width="24"
       height="24"
       id="rect5" /></g><g
     id="Flat"
     style="fill:#ffffff"><g
       id="ui_x5F_spec_x5F_header_copy_2"
       style="fill:#ffffff" /><path
       d="M19,5h-2V3H7v2H5C3.9,5,3,5.9,3,7v1c0,2.55,1.92,4.63,4.39,4.94c0.63,1.5,1.98,2.63,3.61,2.96V19H7v2h10v-2h-4v-3.1   c1.63-0.33,2.98-1.46,3.61-2.96C19.08,12.63,21,10.55,21,8V7C21,5.9,20.1,5,19,5z M7,10.82C5.84,10.4,5,9.3,5,8V7h2V10.82z M19,8   c0,1.3-0.84,2.4-2,2.82V7h2V8z"
       id="path9"
       style="fill:#ffffff" /></g></svg>