<svg xmlns="http://www.w3.org/2000/svg" width="335.688" height="50.471" viewBox="0 0 335.688 50.471">
  <path id="Path_1" data-name="Path 1" d="M872.34,730.26s53.025-21.4,93.184-21.4,47.185,43.625,76.984,43.625,75.893-43.625,101.281-43.625,55.238,23.422,55.238,23.422Z" transform="translate(-872.34 -704.243)" fill="#e53e60"/>
  <path id="Path_2" data-name="Path 2" d="M872.34,730.26s18.795,22.217,58.953,22.217,79.421-48.233,109.221-48.233,70.843,49.242,96.232,49.242,62.281-21.2,62.281-21.2Z" transform="translate(-863.34 -704.243)" fill="#4bf59d"/>
  <path id="Path_3" data-name="Path 3" d="M872.34,730.26s9.593-23.327,49.751-23.327,68.675,47.783,98.475,47.783,66.36-47.783,91.749-47.783,86.712,25.353,86.712,25.353Z" transform="translate(-872.34 -704.243)" fill="#f6ffa4"/>
</svg>
